<svg xmlns="http://www.w3.org/2000/svg" viewBox="0 0 191.86 174.39"><defs><style>.cls-1{fill:#121952;}</style></defs><title>Asset 1</title><g id="Layer_2" data-name="Layer 2"><g id="Layer_1-2" data-name="Layer 1"><g id="_Group_" data-name="&lt;Group&gt;"><path class="cls-1" d="M190.81,0H18.53a1.05,1.05,0,0,0-1.05,1.05V72.94A1.05,1.05,0,0,0,18.53,74H28.89a1.05,1.05,0,0,0,1.05-1.05V13a.53.53,0,0,1,.53-.53H178.86a.53.53,0,0,1,.53.53V161.39a.53.53,0,0,1-.53.53H30.47a.53.53,0,0,1-.53-.53V114.46a.26.26,0,0,1,.48-.15l7.74,11.06a.53.53,0,0,0,.78.07l8.3-7.75a.53.53,0,0,0,0-.75L24.48,92.52a1.05,1.05,0,0,0-1.54,0L.14,117a.53.53,0,0,0,0,.75l8.3,7.75a.53.53,0,0,0,.78-.07L17,114.31a.26.26,0,0,1,.48.15v58.87a1.05,1.05,0,0,0,1.05,1.05H190.81a1.05,1.05,0,0,0,1.05-1.05V1.05A1.05,1.05,0,0,0,190.81,0Z"/></g></g></g></svg>